Coordinates
version=1
nRows=23
nColumns=38
inDegrees=no

Units are S.I. units (second, meters, Newtons, ...)
If the header above contains a line with 'inDegrees', this indicates whether rotational values are in degrees (yes) or radians (no).

endheader
time	pelvis_tilt	pelvis_list	pelvis_rotation	pelvis_tx	pelvis_ty	pelvis_tz	hip_flexion_r	hip_adduction_r	hip_rotation_r	knee_angle_r	ankle_angle_r	subtalar_angle_r	mtp_angle_r	hip_flexion_l	hip_adduction_l	hip_rotation_l	knee_angle_l	ankle_angle_l	subtalar_angle_l	mtp_angle_l	lumbar_extension	lumbar_bending	lumbar_rotation	arm_flex_r	arm_add_r	arm_rot_r	elbow_flex_r	pro_sup_r	wrist_flex_r	wrist_dev_r	arm_flex_l	arm_add_l	arm_rot_l	elbow_flex_l	pro_sup_l	wrist_flex_l	wrist_dev_l
0	2.97274	1.42971	-1.4843	0.696469	-0.419987	1.02775	-0.236161	0.0711615	-0.129845	0.442994	0.00744859	0	0	0.182849	0.0309345	-0.171149	0.174994	-0.226072	0	0	-0.459596	-0.0123887	0.0633196	0.113823	-0.42289	1.12979	0.454335	0.719312	0	0	0.00383257	-0.220817	0.464259	0.344109	1.03223	0	0
0.01	2.96584	1.43629	-1.48214	0.696777	-0.410633	1.02563	-0.237334	0.0701684	-0.120664	0.447746	0.0138202	0	0	0.19322	0.0325186	-0.175116	0.165416	-0.228668	0	0	-0.451776	-0.0147813	0.072536	0.102812	-0.421681	1.09371	0.454122	0.747858	0	0	0.00679721	-0.216629	0.460922	0.337172	1.03823	0	0
0.02	2.97192	1.43654	-1.49319	0.697082	-0.400787	1.0241	-0.247639	0.0676672	-0.115709	0.447204	0.0158455	0	0	0.196512	0.0346044	-0.183474	0.162658	-0.229005	0	0	-0.451179	-0.0179045	0.0762071	0.100097	-0.422442	1.08415	0.456041	0.756954	0	0	0.00518191	-0.215087	0.456977	0.336597	1.03994	0	0
0.03	2.98105	1.43562	-1.50713	0.697316	-0.390756	1.02279	-0.259163	0.0642074	-0.11253	0.447296	0.016383	0	0	0.198193	0.0369958	-0.190555	0.164956	-0.228671	0	0	-0.452036	-0.0215149	0.0790195	0.0982164	-0.423012	1.07677	0.45703	0.764731	0	0	0.00309944	-0.214035	0.453755	0.336687	1.0418	0	0
0.04	2.99311	1.4336	-1.52407	0.697596	-0.38065	1.02164	-0.27032	0.0596686	-0.111306	0.450312	0.0163365	0	0	0.198419	0.0388686	-0.19946	0.172347	-0.227638	0	0	-0.453934	-0.0251867	0.0812583	0.100344	-0.424862	1.08902	0.459311	0.753337	0	0	0.000407271	-0.214062	0.454655	0.338342	1.03908	0	0
0.05	3.00236	1.43199	-1.53853	0.697994	-0.370297	1.02052	-0.281317	0.0553176	-0.110111	0.453184	0.0156302	0	0	0.198513	0.0397799	-0.209116	0.184522	-0.225302	0	0	-0.45523	-0.0291623	0.0833369	0.102571	-0.425867	1.10058	0.460487	0.743586	0	0	-0.00321153	-0.214387	0.453856	0.340109	1.03847	0	0
0.06	3.01123	1.4309	-1.55267	0.698466	-0.359697	1.01943	-0.29117	0.0507253	-0.109915	0.458216	0.0138391	0	0	0.198779	0.0403024	-0.219036	0.201004	-0.222436	0	0	-0.455581	-0.0334424	0.0851606	0.104266	-0.425831	1.11121	0.460503	0.735372	0	0	-0.00775883	-0.215069	0.451275	0.342223	1.03952	0	0
0.07	3.01722	1.42966	-1.56379	0.698912	-0.348854	1.01846	-0.301356	0.0459388	-0.109105	0.462658	0.0107609	0	0	0.198203	0.0405291	-0.228338	0.220721	-0.21936	0	0	-0.455572	-0.0374714	0.0869674	0.105292	-0.425507	1.12084	0.460464	0.728579	0	0	-0.0128386	-0.215748	0.44709	0.344393	1.04196	0	0
0.08	3.02429	1.42886	-1.57602	0.699352	-0.337656	1.01756	-0.311206	0.0404347	-0.108175	0.466494	0.00667001	0	0	0.194019	0.0425331	-0.230883	0.23513	-0.219265	0	0	-0.454493	-0.0419041	0.0889618	0.104584	-0.42474	1.12744	0.460165	0.724176	0	0	-0.0180084	-0.216233	0.442656	0.345379	1.04492	0	0
0.09	3.03521	1.43016	-1.59213	0.699796	-0.326077	1.01663	-0.318127	0.0341455	-0.105339	0.472329	-0.000641989	0	0	0.192388	0.0441924	-0.234517	0.254864	-0.220278	0	0	-0.453718	-0.0478439	0.0971674	0.0626878	-0.405374	0.941063	0.453103	0.90819	0	0	-0.0219381	-0.205042	0.368698	0.33957	1.12281	0	0
0.1	3.05501	1.42941	-1.61731	0.700225	-0.314376	1.01595	-0.326632	0.0264838	-0.100309	0.479772	-0.00822932	0	0	0.188801	0.0462904	-0.240365	0.275106	-0.22412	0	0	-0.45132	-0.0544638	0.0991146	0.0632793	-0.405175	0.959784	0.452373	0.890855	0	0	-0.0274897	-0.207368	0.372774	0.341157	1.11449	0	0
0.11	3.09035	1.42837	-1.65756	0.700637	-0.302592	1.01562	-0.334612	0.0167191	-0.092754	0.488671	-0.0176041	0	0	0.186169	0.0504898	-0.248558	0.291745	-0.230376	0	0	-0.449125	-0.0636112	0.100184	0.063146	-0.402643	0.973277	0.449464	0.878364	0	0	-0.0325571	-0.209868	0.375091	0.342104	1.11001	0	0
0.12	3.13775	1.42672	-1.7086	0.70109	-0.290896	1.01574	-0.342179	0.00585282	-0.083008	0.498341	-0.0281994	0	0	0.185511	0.0560906	-0.257896	0.308555	-0.235787	0	0	-0.447899	-0.0748291	0.0997975	0.0628494	-0.3979	0.982683	0.444824	0.869583	0	0	-0.0371803	-0.213246	0.376402	0.343526	1.10901	0	0
0.13	-3.09291	1.42485	-1.76377	0.701465	-0.27915	1.01619	-0.348306	-0.00517273	-0.0708385	0.510121	-0.0419839	0	0	0.18629	0.0619984	-0.267641	0.329602	-0.240294	0	0	-0.446676	-0.0868864	0.0983665	0.0629581	-0.391851	0.992478	0.438491	0.861176	0	0	-0.0425798	-0.217393	0.375576	0.34688	1.1093	0	0
0.14	-3.04182	1.42318	-1.81559	0.701708	-0.267032	1.01681	-0.35252	-0.0151332	-0.0592124	0.525452	-0.0572242	0	0	0.186339	0.0678112	-0.274921	0.352834	-0.243668	0	0	-0.444365	-0.0982412	0.0964072	0.0611224	-0.384941	0.998083	0.431548	0.855635	0	0	-0.0484565	-0.221792	0.37367	0.35078	1.11129	0	0
0.15	-2.99663	1.4233	-1.85777	0.701646	-0.254337	1.01738	-0.35392	-0.022696	-0.0514995	0.543254	-0.0804639	0	0	0.187016	0.0728463	-0.278821	0.377916	-0.242743	0	0	-0.439347	-0.106908	0.0927868	0.0499176	-0.37112	0.956747	0.418951	0.899119	0	0	-0.0566599	-0.216487	0.312771	0.349371	1.17346	0	0
0.16	-2.96477	1.42231	-1.88544	0.701429	-0.241625	1.01805	-0.354429	-0.0283039	-0.0450506	0.5644	-0.110626	0	0	0.184259	0.0768488	-0.280629	0.400461	-0.240613	0	0	-0.434965	-0.112839	0.0887723	0.0431228	-0.362467	0.94313	0.410561	0.914931	0	0	-0.0638267	-0.224158	0.329969	0.356095	1.15554	0	0
0.17	-2.94374	1.422	-1.90214	0.701118	-0.228833	1.01875	-0.35194	-0.0324599	-0.0394685	0.589533	-0.135953	0	0	0.179066	0.0795963	-0.281115	0.417366	-0.239318	0	0	-0.429872	-0.116659	0.0854123	0.0368771	-0.356986	0.939517	0.405567	0.919916	0	0	-0.0718565	-0.228018	0.325471	0.361333	1.15987	0	0
0.18	-2.93017	1.42232	-1.91132	0.700737	-0.216036	1.01946	-0.346829	-0.0351977	-0.034141	0.617267	-0.152925	0	0	0.171924	0.0809113	-0.282414	0.42909	-0.236856	0	0	-0.424156	-0.118799	0.0821229	0.0352205	-0.356605	0.966875	0.404626	0.890147	0	0	-0.0800464	-0.23244	0.325724	0.367111	1.15992	0	0
0.19	-2.91798	1.42472	-1.91927	0.700329	-0.203234	1.02009	-0.336418	-0.0372493	-0.0280041	0.649133	-0.182866	0	0	0.165634	0.0804894	-0.286184	0.438328	-0.232038	0	0	-0.416074	-0.120125	0.0793686	0.0298592	-0.351821	0.968412	0.399284	0.890676	0	0	-0.0882946	-0.236913	0.327618	0.372598	1.15868	0	0
0.2	-2.90402	1.42869	-1.92925	0.699876	-0.190583	1.02067	-0.320409	-0.0391164	-0.0203204	0.685668	-0.218951	0	0	0.16007	0.0796652	-0.290033	0.445424	-0.226487	0	0	-0.406312	-0.121181	0.0765843	0.0251959	-0.346522	0.970245	0.392685	0.892806	0	0	-0.0964385	-0.241183	0.329516	0.377803	1.15829	0	0
0.21	-2.87918	1.43452	-1.95002	0.69943	-0.178117	1.02109	-0.298756	-0.0414705	-0.0120409	0.725842	-0.26403	0	0	0.156498	0.0795706	-0.293024	0.45209	-0.219967	0	0	-0.394576	-0.123067	0.072874	0.0159487	-0.335354	0.93475	0.381459	0.937411	0	0	-0.105732	-0.241072	0.304208	0.38133	1.18408	0	0
0.22	-2.84552	1.43998	-1.97966	0.699048	-0.165951	1.02144	-0.274875	-0.0443367	-0.00335656	0.768499	-0.306445	0	0	0.153334	0.0799208	-0.298418	0.460409	-0.210845	0	0	-0.382777	-0.12601	0.0674938	0.0112369	-0.32653	0.923369	0.371352	0.958469	0	0	-0.11438	-0.250193	0.326819	0.390008	1.15835	0	0
